
<svg width="140" height="38" viewBox="0 0 140 38" fill="none" xmlns="http://www.w3.org/2000/svg">
    <g filter="url(#filter0_d_789_943)">
        <path fill-rule="evenodd" clip-rule="evenodd"
            d="M22.4492 17.2123C23.3002 16.7186 24.3883 17.0116 24.8796 17.8666C25.3709 18.7217 25.0793 19.8151 24.2283 20.3088L7.50794 30.0091C7.38196 30.0822 7.22087 30.0388 7.14814 29.9122C7.0754 29.7856 7.11857 29.6237 7.24455 29.5506L9.94391 27.9846C10.029 27.9352 10.0582 27.8259 10.009 27.7404C9.9599 27.6549 9.85109 27.6256 9.766 27.675L6.9926 29.2839C6.90751 29.3333 6.7987 29.304 6.74957 29.2185C6.70044 29.133 6.72959 29.0237 6.81469 28.9743L12.6696 25.5776C12.7547 25.5282 12.7839 25.4189 12.7348 25.3334C12.6856 25.2478 12.5768 25.2185 12.4917 25.2679L6.63678 28.6646C6.55168 28.714 6.44287 28.6847 6.39374 28.5992C6.34461 28.5137 6.37377 28.4044 6.45886 28.355L10.773 25.8521C10.8581 25.8028 10.8873 25.6934 10.8382 25.6079C10.789 25.5224 10.6802 25.4931 10.5951 25.5425L6.28095 28.0454C6.19586 28.0947 6.08705 28.0654 6.03792 27.9799C5.98879 27.8944 6.01794 27.7851 6.10304 27.7357L7.64381 26.8418C7.72891 26.7925 7.75806 26.6831 7.70893 26.5976C7.6598 26.5121 7.55099 26.4828 7.4659 26.5322L6.00517 27.3796C5.87587 27.4546 5.71053 27.4101 5.63587 27.2802C5.56122 27.1503 5.60552 26.9841 5.73483 26.9091L22.4492 17.2123Z"
            fill="white" />
        <path fill-rule="evenodd" clip-rule="evenodd"
            d="M31.582 4.1402C32.433 3.64653 33.5211 3.9395 34.0124 4.79457C34.5037 5.64963 34.2121 6.74301 33.3612 7.23668L16.6408 16.937C16.5148 17.0101 16.3537 16.9667 16.2809 16.8401C16.2082 16.7135 16.2514 16.5516 16.3774 16.4786L19.0767 14.9125C19.1618 14.8632 19.191 14.7538 19.1418 14.6683C19.0927 14.5828 18.9839 14.5535 18.8988 14.6029L16.1254 16.2119C16.0403 16.2612 15.9315 16.2319 15.8824 16.1464C15.8333 16.0609 15.8624 15.9516 15.9475 15.9022L21.8024 12.5055C21.8875 12.4561 21.9167 12.3468 21.8676 12.2613C21.8184 12.1758 21.7096 12.1465 21.6245 12.1958L15.7696 15.5926C15.6845 15.6419 15.5757 15.6126 15.5266 15.5271C15.4774 15.4416 15.5066 15.3323 15.5917 15.2829L19.9058 12.7801C19.9909 12.7307 20.0201 12.6214 19.971 12.5359C19.9218 12.4503 19.813 12.421 19.7279 12.4704L15.4138 14.9733C15.3287 15.0226 15.2199 14.9933 15.1707 14.9078C15.1216 14.8223 15.1508 14.713 15.2358 14.6636L16.7766 13.7697C16.8617 13.7204 16.8909 13.611 16.8417 13.5255C16.7926 13.44 16.6838 13.4107 16.5987 13.4601L15.138 14.3075C15.0087 14.3825 14.8433 14.338 14.7687 14.2081C14.694 14.0782 14.7383 13.912 14.8676 13.837L31.582 4.1402Z"
            fill="white" />
        <path fill-rule="evenodd" clip-rule="evenodd"
            d="M19.9258 25.0308C24.3762 25.0308 27.984 21.4231 27.984 16.9727C27.984 12.5223 24.3762 8.91456 19.9258 8.91456C15.4754 8.91456 11.8677 12.5223 11.8677 16.9727C11.8677 21.4231 15.4754 25.0308 19.9258 25.0308ZM19.9258 27.7169C25.8597 27.7169 30.67 22.9066 30.67 16.9727C30.67 11.0389 25.8597 6.22852 19.9258 6.22852C13.992 6.22852 9.18164 11.0389 9.18164 16.9727C9.18164 22.9066 13.992 27.7169 19.9258 27.7169Z"
            fill="white" />
    </g>
    <path
        d="M52.58 23.126C51.704 23.126 50.912 22.976 50.204 22.676C49.508 22.376 48.956 21.944 48.548 21.38C48.14 20.816 47.93 20.15 47.918 19.382H50.618C50.654 19.898 50.834 20.306 51.158 20.606C51.494 20.906 51.95 21.056 52.526 21.056C53.114 21.056 53.576 20.918 53.912 20.642C54.248 20.354 54.416 19.982 54.416 19.526C54.416 19.154 54.302 18.848 54.074 18.608C53.846 18.368 53.558 18.182 53.21 18.05C52.874 17.906 52.406 17.75 51.806 17.582C50.99 17.342 50.324 17.108 49.808 16.88C49.304 16.64 48.866 16.286 48.494 15.818C48.134 15.338 47.954 14.702 47.954 13.91C47.954 13.166 48.14 12.518 48.512 11.966C48.884 11.414 49.406 10.994 50.078 10.706C50.75 10.406 51.518 10.256 52.382 10.256C53.678 10.256 54.728 10.574 55.532 11.21C56.348 11.834 56.798 12.71 56.882 13.838H54.11C54.086 13.406 53.9 13.052 53.552 12.776C53.216 12.488 52.766 12.344 52.202 12.344C51.71 12.344 51.314 12.47 51.014 12.722C50.726 12.974 50.582 13.34 50.582 13.82C50.582 14.156 50.69 14.438 50.906 14.666C51.134 14.882 51.41 15.062 51.734 15.206C52.07 15.338 52.538 15.494 53.138 15.674C53.954 15.914 54.62 16.154 55.136 16.394C55.652 16.634 56.096 16.994 56.468 17.474C56.84 17.954 57.026 18.584 57.026 19.364C57.026 20.036 56.852 20.66 56.504 21.236C56.156 21.812 55.646 22.274 54.974 22.622C54.302 22.958 53.504 23.126 52.58 23.126ZM62.1448 15.098V19.922C62.1448 20.258 62.2228 20.504 62.3788 20.66C62.5468 20.804 62.8228 20.876 63.2068 20.876H64.3768V23H62.7928C60.6688 23 59.6068 21.968 59.6068 19.904V15.098H58.4188V13.028H59.6068V10.562H62.1448V13.028H64.3768V15.098H62.1448ZM65.5413 17.978C65.5413 16.97 65.7393 16.076 66.1353 15.296C66.5433 14.516 67.0893 13.916 67.7733 13.496C68.4693 13.076 69.2433 12.866 70.0953 12.866C70.8393 12.866 71.4873 13.016 72.0393 13.316C72.6033 13.616 73.0533 13.994 73.3893 14.45V13.028H75.9273V23H73.3893V21.542C73.0653 22.01 72.6153 22.4 72.0393 22.712C71.4753 23.012 70.8213 23.162 70.0773 23.162C69.2373 23.162 68.4693 22.946 67.7733 22.514C67.0893 22.082 66.5433 21.476 66.1353 20.696C65.7393 19.904 65.5413 18.998 65.5413 17.978ZM73.3893 18.014C73.3893 17.402 73.2693 16.88 73.0293 16.448C72.7893 16.004 72.4653 15.668 72.0573 15.44C71.6493 15.2 71.2113 15.08 70.7433 15.08C70.2753 15.08 69.8433 15.194 69.4473 15.422C69.0513 15.65 68.7273 15.986 68.4753 16.43C68.2353 16.862 68.1153 17.378 68.1153 17.978C68.1153 18.578 68.2353 19.106 68.4753 19.562C68.7273 20.006 69.0513 20.348 69.4473 20.588C69.8553 20.828 70.2873 20.948 70.7433 20.948C71.2113 20.948 71.6493 20.834 72.0573 20.606C72.4653 20.366 72.7893 20.03 73.0293 19.598C73.2693 19.154 73.3893 18.626 73.3893 18.014ZM80.9085 14.576C81.2325 14.048 81.6525 13.634 82.1685 13.334C82.6965 13.034 83.2965 12.884 83.9685 12.884V15.53H83.3025C82.5105 15.53 81.9105 15.716 81.5025 16.088C81.1065 16.46 80.9085 17.108 80.9085 18.032V23H78.3885V13.028H80.9085V14.576ZM88.1858 14.486C88.5098 14.006 88.9538 13.616 89.5178 13.316C90.0938 13.016 90.7478 12.866 91.4798 12.866C92.3318 12.866 93.0998 13.076 93.7838 13.496C94.4798 13.916 95.0258 14.516 95.4218 15.296C95.8298 16.064 96.0338 16.958 96.0338 17.978C96.0338 18.998 95.8298 19.904 95.4218 20.696C95.0258 21.476 94.4798 22.082 93.7838 22.514C93.0998 22.946 92.3318 23.162 91.4798 23.162C90.7358 23.162 90.0818 23.018 89.5178 22.73C88.9658 22.43 88.5218 22.046 88.1858 21.578V23H85.6658V9.68H88.1858V14.486ZM93.4598 17.978C93.4598 17.378 93.3338 16.862 93.0818 16.43C92.8418 15.986 92.5178 15.65 92.1098 15.422C91.7138 15.194 91.2818 15.08 90.8138 15.08C90.3578 15.08 89.9258 15.2 89.5178 15.44C89.1218 15.668 88.7978 16.004 88.5458 16.448C88.3058 16.892 88.1858 17.414 88.1858 18.014C88.1858 18.614 88.3058 19.136 88.5458 19.58C88.7978 20.024 89.1218 20.366 89.5178 20.606C89.9258 20.834 90.3578 20.948 90.8138 20.948C91.2818 20.948 91.7138 20.828 92.1098 20.588C92.5178 20.348 92.8418 20.006 93.0818 19.562C93.3338 19.118 93.4598 18.59 93.4598 17.978ZM102.293 23.162C101.333 23.162 100.469 22.952 99.701 22.532C98.933 22.1 98.327 21.494 97.883 20.714C97.451 19.934 97.235 19.034 97.235 18.014C97.235 16.994 97.457 16.094 97.901 15.314C98.357 14.534 98.975 13.934 99.755 13.514C100.535 13.082 101.405 12.866 102.365 12.866C103.325 12.866 104.195 13.082 104.975 13.514C105.755 13.934 106.367 14.534 106.811 15.314C107.267 16.094 107.495 16.994 107.495 18.014C107.495 19.034 107.261 19.934 106.793 20.714C106.337 21.494 105.713 22.1 104.921 22.532C104.141 22.952 103.265 23.162 102.293 23.162ZM102.293 20.966C102.749 20.966 103.175 20.858 103.571 20.642C103.979 20.414 104.303 20.078 104.543 19.634C104.783 19.19 104.903 18.65 104.903 18.014C104.903 17.066 104.651 16.34 104.147 15.836C103.655 15.32 103.049 15.062 102.329 15.062C101.609 15.062 101.003 15.32 100.511 15.836C100.031 16.34 99.791 17.066 99.791 18.014C99.791 18.962 100.025 19.694 100.493 20.21C100.973 20.714 101.573 20.966 102.293 20.966ZM108.696 17.978C108.696 16.97 108.894 16.076 109.29 15.296C109.698 14.516 110.244 13.916 110.928 13.496C111.624 13.076 112.398 12.866 113.25 12.866C113.994 12.866 114.642 13.016 115.194 13.316C115.758 13.616 116.208 13.994 116.544 14.45V13.028H119.082V23H116.544V21.542C116.22 22.01 115.77 22.4 115.194 22.712C114.63 23.012 113.976 23.162 113.232 23.162C112.392 23.162 111.624 22.946 110.928 22.514C110.244 22.082 109.698 21.476 109.29 20.696C108.894 19.904 108.696 18.998 108.696 17.978ZM116.544 18.014C116.544 17.402 116.424 16.88 116.184 16.448C115.944 16.004 115.62 15.668 115.212 15.44C114.804 15.2 114.366 15.08 113.898 15.08C113.43 15.08 112.998 15.194 112.602 15.422C112.206 15.65 111.882 15.986 111.63 16.43C111.39 16.862 111.27 17.378 111.27 17.978C111.27 18.578 111.39 19.106 111.63 19.562C111.882 20.006 112.206 20.348 112.602 20.588C113.01 20.828 113.442 20.948 113.898 20.948C114.366 20.948 114.804 20.834 115.212 20.606C115.62 20.366 115.944 20.03 116.184 19.598C116.424 19.154 116.544 18.626 116.544 18.014ZM124.063 14.576C124.387 14.048 124.807 13.634 125.323 13.334C125.851 13.034 126.451 12.884 127.123 12.884V15.53H126.457C125.665 15.53 125.065 15.716 124.657 16.088C124.261 16.46 124.063 17.108 124.063 18.032V23H121.543V13.028H124.063V14.576ZM128.172 17.978C128.172 16.97 128.37 16.076 128.766 15.296C129.174 14.516 129.726 13.916 130.422 13.496C131.118 13.076 131.892 12.866 132.744 12.866C133.392 12.866 134.01 13.01 134.598 13.298C135.186 13.574 135.654 13.946 136.002 14.414V9.68H138.558V23H136.002V21.524C135.69 22.016 135.252 22.412 134.688 22.712C134.124 23.012 133.47 23.162 132.726 23.162C131.886 23.162 131.118 22.946 130.422 22.514C129.726 22.082 129.174 21.476 128.766 20.696C128.37 19.904 128.172 18.998 128.172 17.978ZM136.02 18.014C136.02 17.402 135.9 16.88 135.66 16.448C135.42 16.004 135.096 15.668 134.688 15.44C134.28 15.2 133.842 15.08 133.374 15.08C132.906 15.08 132.474 15.194 132.078 15.422C131.682 15.65 131.358 15.986 131.106 16.43C130.866 16.862 130.746 17.378 130.746 17.978C130.746 18.578 130.866 19.106 131.106 19.562C131.358 20.006 131.682 20.348 132.078 20.588C132.486 20.828 132.918 20.948 133.374 20.948C133.842 20.948 134.28 20.834 134.688 20.606C135.096 20.366 135.42 20.03 135.66 19.598C135.9 19.154 136.02 18.626 136.02 18.014Z"
        fill="#FCFCFC" />
    <defs>
        <filter id="filter0_d_789_943" x="0" y="-1" width="40" height="40"
            filterUnits="userSpaceOnUse" color-interpolation-filters="sRGB">
            <feFlood flood-opacity="0" result="BackgroundImageFix" />
            <feColorMatrix in="SourceAlpha" type="matrix"
                values="0 0 0 0 0 0 0 0 0 0 0 0 0 0 0 0 0 0 127 0" result="hardAlpha" />
            <feOffset dy="2" />
            <feGaussianBlur stdDeviation="2.5" />
            <feColorMatrix type="matrix"
                values="0 0 0 0 0.14902 0 0 0 0 0.2 0 0 0 0 0.301961 0 0 0 0.03 0" />
            <feBlend mode="normal" in2="BackgroundImageFix" result="effect1_dropShadow_789_943" />
            <feBlend mode="normal" in="SourceGraphic" in2="effect1_dropShadow_789_943"
                result="shape" />
        </filter>
    </defs>
</svg>
    